<svg width="46" height="46" viewBox="0 0 46 46" fill="none" xmlns="http://www.w3.org/2000/svg">
  <circle cx="0.5" cy="0.5" r="0.5" fill="#FFD666" />
  <circle cx="5.5" cy="0.5" r="0.5" fill="#FFD666" />
  <circle cx="10.5" cy="0.5" r="0.5" fill="#FFD666" />
  <circle cx="15.5" cy="0.5" r="0.5" fill="#FFD666" />
  <circle cx="20.5" cy="0.5" r="0.5" fill="#FFD666" />
  <circle cx="25.5" cy="0.5" r="0.5" fill="#FFD666" />
  <circle cx="30.5" cy="0.5" r="0.5" fill="#FFD666" />
  <circle cx="35.5" cy="0.5" r="0.5" fill="#FFD666" />
  <circle cx="40.5" cy="0.5" r="0.5" fill="#FFD666" />
  <circle cx="45.5" cy="0.5" r="0.5" fill="#FFD666" />
  <circle cx="0.5" cy="5.5" r="0.5" fill="#FFD666" />
  <circle cx="5.5" cy="5.5" r="0.5" fill="#FFD666" />
  <circle cx="10.5" cy="5.5" r="0.5" fill="#FFD666" />
  <circle cx="15.5" cy="5.5" r="0.5" fill="#FFD666" />
  <circle cx="20.5" cy="5.5" r="0.5" fill="#FFD666" />
  <circle cx="25.5" cy="5.5" r="0.5" fill="#FFD666" />
  <circle cx="30.5" cy="5.5" r="0.5" fill="#FFD666" />
  <circle cx="35.5" cy="5.5" r="0.5" fill="#FFD666" />
  <circle cx="40.5" cy="5.5" r="0.5" fill="#FFD666" />
  <circle cx="45.5" cy="5.5" r="0.5" fill="#FFD666" />
  <circle cx="0.5" cy="10.5" r="0.5" fill="#FFD666" />
  <circle cx="5.5" cy="10.5" r="0.5" fill="#FFD666" />
  <circle cx="10.5" cy="10.5" r="0.5" fill="#FFD666" />
  <circle cx="15.5" cy="10.5" r="0.5" fill="#FFD666" />
  <circle cx="20.5" cy="10.5" r="0.5" fill="#FFD666" />
  <circle cx="25.5" cy="10.5" r="0.5" fill="#FFD666" />
  <circle cx="30.5" cy="10.5" r="0.5" fill="#FFD666" />
  <circle cx="35.5" cy="10.5" r="0.5" fill="#FFD666" />
  <circle cx="40.5" cy="10.5" r="0.5" fill="#FFD666" />
  <circle cx="45.5" cy="10.5" r="0.5" fill="#FFD666" />
  <circle cx="0.5" cy="15.5" r="0.5" fill="#FFD666" />
  <circle cx="5.5" cy="15.5" r="0.5" fill="#FFD666" />
  <circle cx="10.5" cy="15.5" r="0.5" fill="#FFD666" />
  <circle cx="15.5" cy="15.5" r="0.5" fill="#FFD666" />
  <circle cx="20.5" cy="15.5" r="0.5" fill="#FFD666" />
  <circle cx="25.5" cy="15.5" r="0.5" fill="#FFD666" />
  <circle cx="30.5" cy="15.5" r="0.5" fill="#FFD666" />
  <circle cx="35.5" cy="15.5" r="0.5" fill="#FFD666" />
  <circle cx="40.5" cy="15.5" r="0.5" fill="#FFD666" />
  <circle cx="45.5" cy="15.5" r="0.5" fill="#FFD666" />
  <circle cx="0.5" cy="20.5" r="0.5" fill="#FFD666" />
  <circle cx="5.5" cy="20.5" r="0.5" fill="#FFD666" />
  <circle cx="10.5" cy="20.5" r="0.5" fill="#FFD666" />
  <circle cx="15.5" cy="20.5" r="0.5" fill="#FFD666" />
  <circle cx="20.5" cy="20.5" r="0.5" fill="#FFD666" />
  <circle cx="25.5" cy="20.5" r="0.5" fill="#FFD666" />
  <circle cx="30.5" cy="20.5" r="0.5" fill="#FFD666" />
  <circle cx="35.5" cy="20.5" r="0.5" fill="#FFD666" />
  <circle cx="40.5" cy="20.5" r="0.5" fill="#FFD666" />
  <circle cx="45.5" cy="20.5" r="0.5" fill="#FFD666" />
  <circle cx="0.5" cy="25.5" r="0.5" fill="#FFD666" />
  <circle cx="5.5" cy="25.5" r="0.5" fill="#FFD666" />
  <circle cx="10.5" cy="25.5" r="0.5" fill="#FFD666" />
  <circle cx="15.5" cy="25.5" r="0.5" fill="#FFD666" />
  <circle cx="20.5" cy="25.5" r="0.5" fill="#FFD666" />
  <circle cx="25.5" cy="25.5" r="0.5" fill="#FFD666" />
  <circle cx="30.5" cy="25.5" r="0.5" fill="#FFD666" />
  <circle cx="35.5" cy="25.5" r="0.5" fill="#FFD666" />
  <circle cx="40.5" cy="25.5" r="0.5" fill="#FFD666" />
  <circle cx="45.5" cy="25.5" r="0.5" fill="#FFD666" />
  <circle cx="0.5" cy="30.5" r="0.5" fill="#FFD666" />
  <circle cx="5.5" cy="30.5" r="0.5" fill="#FFD666" />
  <circle cx="10.5" cy="30.5" r="0.5" fill="#FFD666" />
  <circle cx="15.5" cy="30.5" r="0.5" fill="#FFD666" />
  <circle cx="20.5" cy="30.5" r="0.5" fill="#FFD666" />
  <circle cx="25.5" cy="30.5" r="0.5" fill="#FFD666" />
  <circle cx="30.5" cy="30.5" r="0.5" fill="#FFD666" />
  <circle cx="35.5" cy="30.5" r="0.5" fill="#FFD666" />
  <circle cx="40.5" cy="30.5" r="0.5" fill="#FFD666" />
  <circle cx="45.5" cy="30.5" r="0.5" fill="#FFD666" />
  <circle cx="0.5" cy="35.5" r="0.5" fill="#FFD666" />
  <circle cx="5.5" cy="35.5" r="0.5" fill="#FFD666" />
  <circle cx="10.5" cy="35.5" r="0.5" fill="#FFD666" />
  <circle cx="15.5" cy="35.5" r="0.5" fill="#FFD666" />
  <circle cx="20.5" cy="35.5" r="0.5" fill="#FFD666" />
  <circle cx="25.5" cy="35.5" r="0.5" fill="#FFD666" />
  <circle cx="30.5" cy="35.5" r="0.5" fill="#FFD666" />
  <circle cx="35.5" cy="35.5" r="0.5" fill="#FFD666" />
  <circle cx="40.5" cy="35.5" r="0.5" fill="#FFD666" />
  <circle cx="45.5" cy="35.5" r="0.5" fill="#FFD666" />
  <circle cx="0.5" cy="40.5" r="0.5" fill="#FFD666" />
  <circle cx="5.5" cy="40.5" r="0.5" fill="#FFD666" />
  <circle cx="10.5" cy="40.5" r="0.5" fill="#FFD666" />
  <circle cx="15.5" cy="40.5" r="0.5" fill="#FFD666" />
  <circle cx="20.5" cy="40.5" r="0.5" fill="#FFD666" />
  <circle cx="25.5" cy="40.5" r="0.5" fill="#FFD666" />
  <circle cx="30.5" cy="40.5" r="0.5" fill="#FFD666" />
  <circle cx="35.5" cy="40.5" r="0.5" fill="#FFD666" />
  <circle cx="40.5" cy="40.5" r="0.5" fill="#FFD666" />
  <circle cx="45.5" cy="40.5" r="0.5" fill="#FFD666" />
  <circle cx="0.5" cy="45.5" r="0.5" fill="#FFD666" />
  <circle cx="5.5" cy="45.5" r="0.5" fill="#FFD666" />
  <circle cx="10.5" cy="45.5" r="0.5" fill="#FFD666" />
  <circle cx="15.5" cy="45.5" r="0.5" fill="#FFD666" />
  <circle cx="20.5" cy="45.5" r="0.5" fill="#FFD666" />
  <circle cx="25.5" cy="45.5" r="0.5" fill="#FFD666" />
  <circle cx="30.5" cy="45.5" r="0.5" fill="#FFD666" />
  <circle cx="35.5" cy="45.5" r="0.5" fill="#FFD666" />
  <circle cx="40.5" cy="45.5" r="0.5" fill="#FFD666" />
  <circle cx="45.5" cy="45.5" r="0.5" fill="#FFD666" />
</svg>